<?xml version="1.0" encoding="UTF-8"?>
<!-- Generated by Pixelmator Pro 2.4.5 -->
<svg width="3548" height="541" viewBox="0 0 3548 541" xmlns="http://www.w3.org/2000/svg" xmlns:xlink="http://www.w3.org/1999/xlink">
    <g id="Group-copy">
        <path id="CHALIPA" fill="#fafafa" fill-rule="evenodd" stroke="none" d="M 3352.52417 444.509521 L 3169.678955 444.509521 L 3144.52002 530.262573 L 2980.455322 530.262573 L 3175.702881 10.783447 L 3350.752441 10.783447 L 3546 530.262573 L 3378.037354 530.262573 Z M 3318.86084 332.180176 L 3261.455811 145.436981 L 3204.405273 332.180176 Z"/>
        <path id="Shape" fill="#fafafa" fill-rule="evenodd" stroke="none" d="M 2569.761963 10.783447 L 2836.588623 10.783447 C 2894.702148 10.783447 2938.228271 24.603149 2967.166992 52.242584 C 2996.105713 79.881989 3010.575195 119.214691 3010.575195 170.241577 C 3010.575195 222.685883 2994.806396 263.672241 2963.269287 293.201508 C 2931.731934 322.730774 2883.599854 337.495422 2818.871094 337.495422 L 2730.991943 337.495422 L 2730.991943 530.262573 L 2569.761963 530.262573 Z M 2730.991943 232.253082 L 2770.324951 232.253082 C 2801.271484 232.253082 2823.005127 226.878754 2835.525635 216.130096 C 2848.045898 205.381439 2854.306152 191.620789 2854.306152 174.848145 C 2854.306152 158.548004 2848.872803 144.728271 2838.005859 133.389038 C 2827.13916 122.049805 2806.704834 116.380188 2776.703125 116.380188 L 2730.991943 116.380188 Z"/>
        <path id="path1" fill="#fafafa" fill-rule="evenodd" stroke="none" d="M 2292.011963 10.783447 L 2452.887451 10.783447 L 2452.887451 530.262573 L 2292.011963 530.262573 Z"/>
        <path id="path2" fill="#fafafa" fill-rule="evenodd" stroke="none" d="M 1801.589722 10.783447 L 1962.11084 10.783447 L 1962.11084 402.341736 L 2212.637207 402.341736 L 2212.637207 530.262573 L 1801.589722 530.262573 Z"/>
        <g id="g1">
            <path id="Rounded-Rectangle" fill="#dc2626" fill-rule="evenodd" stroke="none" d="M 624.735474 530 L 785.87384 530 L 785.87384 10.19873 L 624.735474 10.19873 Z"/>
            <path id="Rounded-Rectangle-copy" fill="#dc2626" fill-rule="evenodd" stroke="none" d="M 930.970459 530 L 1092.108887 530 L 1092.108887 10.19873 L 930.970459 10.19873 Z"/>
            <path id="Rectangle-copy" fill="#dc2626" fill-rule="evenodd" stroke="none" d="M 1198.891968 191.628967 L 1198.891968 319.663574 L 1015.295166 319.663574 L 1015.295166 191.628967 Z"/>
            <path id="Rectangle-copy-2" fill="#dc2626" fill-rule="evenodd" stroke="none" d="M 1198.891968 191.628967 L 1198.891968 319.663574 L 515.235413 319.663574 L 515.235413 191.628967 Z"/>
        </g>
        <g id="Group">
            <path id="path3" fill="#dc2626" fill-rule="evenodd" stroke="none" visibility="hidden" d="M 1199.019897 191.597168 L 1199.019897 319.806213 L 1015.172974 319.806213 L 1015.172974 191.597168 Z"/>
            <path id="Rectangle-copy-1" fill="#dc2626" fill-rule="evenodd" stroke="none" visibility="hidden" d="M 1199.019897 191.597168 L 1199.019897 319.806213 L 514.431946 319.806213 L 514.431946 191.597168 Z"/>
            <g id="g2">
                <path id="Shape-copy" fill="#dc2626" fill-rule="evenodd" stroke="none" visibility="hidden" d="M 610.810974 11.861206 L 770.866638 11.861206 L 770.866638 193.116333 L 945.761902 193.116333 L 945.761902 11.861206 L 1106.524292 11.861206 L 1106.524292 529.833862 L 945.761902 529.833862 L 945.761902 320.312866 L 770.866638 320.312866 L 770.866638 529.833862 L 610.810974 529.833862 Z"/>
                <path id="path4" fill="#dc2626" fill-rule="evenodd" stroke="none" visibility="hidden" d="M 624.657349 530 L 785.547302 530 L 785.547302 11 L 624.657349 11 Z"/>
                <path id="path5" fill="#dc2626" fill-rule="evenodd" stroke="none" visibility="hidden" d="M 932.597351 530 L 1093.487305 530 L 1093.487305 11 L 932.597351 11 Z"/>
                <path id="path6" fill="#dc2626" fill-rule="evenodd" stroke="none" visibility="hidden" d="M 1199.017334 192.150574 L 1199.017334 319.987823 L 1015.703552 319.987823 L 1015.703552 192.150574 Z"/>
                <path id="path7" fill="#dc2626" fill-rule="evenodd" stroke="none" visibility="hidden" d="M 1199.017334 192.150574 L 1199.017334 319.987823 L 516.414612 319.987823 L 516.414612 192.150574 Z"/>
            </g>
        </g>
        <path id="path8" fill="#dc2626" fill-rule="evenodd" stroke="none" visibility="hidden" d="M 609.204102 11 L 769.392334 11 L 769.392334 192.405273 L 944.432495 192.405273 L 944.432495 11 L 1105.328003 11 L 1105.328003 529.401794 L 944.432495 529.401794 L 944.432495 319.707214 L 769.392334 319.707214 L 769.392334 529.401794 L 609.204102 529.401794 Z"/>
        <path id="path9" fill="#fafafa" fill-rule="evenodd" stroke="none" d="M 365.56897 318.006104 L 506.24646 360.528259 C 496.797089 399.979675 481.914307 432.934052 461.598175 459.392303 C 441.282043 485.850525 416.064331 505.812317 385.944153 519.277649 C 355.824005 532.743042 317.495575 539.475708 270.957153 539.475708 C 214.496872 539.475708 168.372726 531.266541 132.582932 514.848267 C 96.793152 498.429993 65.905823 469.550659 39.920055 428.209381 C 13.93429 386.868103 0.941406 333.952209 0.941406 269.459961 C 0.941406 183.470398 23.796774 117.38446 69.508392 71.200378 C 115.220016 25.016296 179.88855 1.924683 263.515778 1.924683 C 328.952942 1.924683 380.392365 15.153809 417.835785 41.61203 C 455.279205 68.070282 483.09549 108.702271 501.285522 163.508911 L 359.544983 195.046173 C 354.584076 179.218475 349.386902 167.643005 343.953522 160.319733 C 334.976624 148.035553 323.99173 138.586182 310.99884 131.971649 C 298.005951 125.357086 283.47757 122.049805 267.413635 122.049805 C 231.033264 122.049805 203.157913 136.69632 183.786713 165.98938 C 169.140182 187.722931 161.816925 221.858459 161.816925 268.396912 C 161.816925 326.038361 170.557587 365.548248 188.038925 386.927429 C 205.520264 408.306641 230.088318 418.996246 261.744019 418.996246 C 292.454742 418.996246 315.664459 410.373688 331.374054 393.128601 C 347.083618 375.883484 358.481934 350.842957 365.56897 318.006104 Z"/>
        <path id="path10" fill="#fafafa" fill-rule="evenodd" stroke="none" d="M 1556.73291 444.509521 L 1373.887573 444.509521 L 1348.728638 530.262573 L 1184.66394 530.262573 L 1379.911499 10.783447 L 1554.96106 10.783447 L 1750.20874 530.262573 L 1582.246216 530.262573 Z M 1523.069458 332.180176 L 1465.664551 145.436981 L 1408.614014 332.180176 Z"/>
    </g>
</svg>
